Coordinates
version=1
nRows=8
nColumns=40
inDegrees=yes

Units are S.I. units (second, meters, Newtons, ...)
Angles are in degrees.

endheader
time	pelvis_tilt	pelvis_list	pelvis_rotation	pelvis_tx	pelvis_ty	pelvis_tz	hip_flexion_r	hip_adduction_r	hip_rotation_r	knee_angle_r	knee_angle_r_beta	ankle_angle_r	subtalar_angle_r	mtp_angle_r	hip_flexion_l	hip_adduction_l	hip_rotation_l	knee_angle_l	knee_angle_l_beta	ankle_angle_l	subtalar_angle_l	mtp_angle_l	lumbar_extension	lumbar_bending	lumbar_rotation	arm_flex_r	arm_add_r	arm_rot_r	elbow_flex_r	pro_sup_r	wrist_flex_r	wrist_dev_r	arm_flex_l	arm_add_l	arm_rot_l	elbow_flex_l	pro_sup_l	wrist_flex_l	wrist_dev_l
     37.11000000	     -3.02807745	     -5.02826705	     10.90845856	      0.88948130	      0.91964422	      0.54605597	      6.37404939	      7.23516224	    -13.21805631	     18.74478531	     18.74478531	     18.46282656	     -5.35183086	     -1.34835451	     29.40661305	    -10.07965295	      4.47954067	     17.75862183	     17.75862183	      6.07028911	     -1.91564174	      7.08884210	     -8.30761949	      3.29764738	      3.24349979	     54.64467927	    -20.89941802	    -10.56536498	     70.13201896	     44.97654855	      0.00000000	      0.00000000	    -19.88182155	     -7.69470564	     21.37406861	     31.41045148	     42.76319009	      0.00000000	      0.00000000
     37.13385714	     -3.20110280	     -5.24419871	     10.91744644	      0.89000583	      0.91869057	      0.54356401	      6.10536626	      7.35376259	    -13.19100331	     18.57368411	     18.57368411	     18.71191459	     -5.22505636	     -1.37715929	     29.21320477	    -10.17292313	      4.15577878	     17.43598218	     17.43598218	      4.98074503	     -1.02315681	      4.10504127	     -8.14992897	      3.35799709	      3.29996246	     55.21572280	    -20.58149314	    -10.10676464	     71.38340662	     44.94082294	      0.00000000	      0.00000000	    -19.28438761	     -7.53582218	     21.83856975	     30.87878313	     42.80545276	      0.00000000	      0.00000000
     37.15771429	     -3.40402058	     -5.38516521	     10.88351560	      0.89067410	      0.91787945	      0.54076322	      5.89814540	      7.35731792	    -13.10610376	     18.51787153	     18.51787153	     18.96193236	     -5.18732098	     -1.41735433	     29.06782923	    -10.09541794	      4.29761505	     17.39896028	     17.39896028	      4.46885111	     -0.90904429	      3.58788291	     -7.95559946	      3.35531057	      3.47954976	     55.82190646	    -20.36596335	     -9.98780235	     71.72445092	     44.93285216	      0.00000000	      0.00000000	    -18.73442692	     -7.54867938	     21.90856096	     30.92902775	     42.82668576	      0.00000000	      0.00000000
     37.18157143	     -3.62050714	     -5.44593373	     10.81313200	      0.89164250	      0.91723297	      0.53767303	      5.63735042	      7.25782562	    -13.00340117	     18.40954694	     18.40954694	     19.14748273	     -5.12020087	     -1.43322028	     28.97907934	     -9.95829533	      4.33174398	     17.60995142	     17.60995142	      4.00319044	     -0.79561617	      3.38242645	     -7.74703578	      3.23352381	      3.57053962	     56.09611287	    -20.00931647	     -9.82517810	     71.93664950	     44.92267031	      0.00000000	      0.00000000	    -18.16087660	     -7.70530824	     21.90145104	     30.99848646	     42.84322077	      0.00000000	      0.00000000
     37.20542857	     -3.66128918	     -5.58045355	     10.68922515	      0.89312907	      0.91680920	      0.53427202	      5.08589598	      7.23116975	    -13.05723276	     18.18360001	     18.18360001	     19.48498444	     -4.58687018	     -1.11713162	     28.61286301	     -9.98987076	      4.19362895	     17.61157591	     17.61157591	      2.04263436	     -0.89723857	     -0.95679682	     -7.73108949	      3.32542024	      3.41820271	     56.32149263	    -19.54412319	     -9.02574503	     72.78700872	     44.89833747	      0.00000000	      0.00000000	    -17.58589733	     -7.73643499	     22.46186255	     30.24857295	     42.90554364	      0.00000000	      0.00000000
     37.22928571	     -3.85412368	     -5.57524156	     10.49566742	      0.89460084	      0.91656111	      0.53064873	      4.73020907	      7.02416593	    -12.87133675	     18.04968366	     18.04968366	     19.60235212	     -4.47233477	     -1.11080741	     28.53698451	     -9.81786183	      4.16259039	     18.07827869	     18.07827869	      1.65440692	     -1.11790086	     -0.97317472	     -7.56763070	      3.21747646	      3.57318668	     56.46763490	    -19.24744458	     -8.90205294	     72.84597860	     44.89393571	      0.00000000	      0.00000000	    -17.03566976	     -8.11215198	     22.39408185	     30.33309975	     42.92765988	      0.00000000	      0.00000000
     37.25314286	     -3.90168172	     -5.63820239	     10.29383362	      0.89640985	      0.91656702	      0.52657806	      4.09331665	      6.88237633	    -12.82968805	     17.70581239	     17.70581239	     19.67046478	     -4.00134293	     -1.03351395	     28.52912403	     -9.66666606	      4.43443988	     18.98477143	     18.98477143	      1.43431574	     -1.94280191	     -1.30540319	     -7.54457031	      3.26899660	      3.64945630	     56.64178788	    -18.99212534	     -8.69150897	     72.92424919	     44.89067244	      0.00000000	      0.00000000	    -16.62366721	     -8.42641360	     22.39867601	     30.33148076	     42.95607028	      0.00000000	      0.00000000
     37.27700000	     -4.02133702	     -5.59386011	     10.03675752	      0.89833333	      0.91678236	      0.52217945	      3.51170164	      6.53421002	    -12.97316124	     17.40382156	     17.40382156	     19.74621239	     -3.13142834	     -0.94269324	     28.39453147	     -9.34926238	      4.79213310	     19.60346044	     19.60346044	      1.14911939	     -3.14498620	     -1.56327715	     -7.46472990	      3.22205668	      3.67576177	     56.72424402	    -18.75365794	     -8.21635204	     72.84726105	     44.89350499	      0.00000000	      0.00000000	    -16.18237651	     -8.81896858	     22.47688633	     30.24764625	     43.01482611	      0.00000000	      0.00000000
